<svg xmlns="http://www.w3.org/2000/svg" xmlns:xlink="http://www.w3.org/1999/xlink" width="200" zoomAndPan="magnify" viewBox="0 0 150 60" height="80" preserveAspectRatio="xMidYMid meet" version="1.0"><defs><g/></defs><g fill="#000000" fill-opacity="1"><g transform="translate(0.160353, 45.700502)"><g><path d="M 1.515625 -34.421875 L 11.015625 -34.421875 C 13.472656 -34.421875 15.316406 -33.738281 16.546875 -32.375 C 17.773438 -31.019531 18.40625 -29.003906 18.4375 -26.328125 L 18.515625 -10.21875 C 18.546875 -6.820312 17.957031 -4.269531 16.75 -2.5625 C 15.550781 -0.851562 13.5625 0 10.78125 0 L 1.515625 0 Z M 9.65625 -6.09375 C 10.914062 -6.09375 11.546875 -6.707031 11.546875 -7.9375 L 11.546875 -25.6875 C 11.546875 -26.46875 11.484375 -27.050781 11.359375 -27.4375 C 11.242188 -27.820312 11.023438 -28.082031 10.703125 -28.21875 C 10.378906 -28.351562 9.882812 -28.421875 9.21875 -28.421875 L 8.453125 -28.421875 L 8.453125 -6.09375 Z M 9.65625 -6.09375 "/></g></g></g><g fill="#000000" fill-opacity="1"><g transform="translate(20.23726, 45.700502)"><g><path d="M 1.515625 0 L 1.515625 -34.421875 L 15.3125 -34.421875 L 15.3125 -27.78125 L 8.53125 -27.78125 L 8.53125 -21.078125 L 15.03125 -21.078125 L 15.03125 -14.59375 L 8.53125 -14.59375 L 8.53125 -6.6875 L 15.75 -6.6875 L 15.75 0 Z M 1.515625 0 "/></g></g></g><g fill="#000000" fill-opacity="1"><g transform="translate(37.068224, 45.700502)"><g><path d="M 4.6875 0 L 0.4375 -34.46875 L 7.015625 -34.46875 L 9.53125 -11.015625 L 11.78125 -34.46875 L 18.359375 -34.46875 L 14.109375 0 Z M 4.6875 0 "/></g></g></g><g fill="#000000" fill-opacity="1"><g transform="translate(56.183364, 45.700502)"><g><path d="M 9.703125 0.328125 C 6.578125 0.328125 4.316406 -0.445312 2.921875 -2 C 1.535156 -3.550781 0.84375 -6.050781 0.84375 -9.5 L 0.84375 -12.859375 L 7.609375 -12.859375 L 7.609375 -8.578125 C 7.609375 -6.867188 8.160156 -6.015625 9.265625 -6.015625 C 9.878906 -6.015625 10.304688 -6.191406 10.546875 -6.546875 C 10.785156 -6.910156 10.90625 -7.519531 10.90625 -8.375 C 10.90625 -9.5 10.769531 -10.425781 10.5 -11.15625 C 10.226562 -11.894531 9.882812 -12.507812 9.46875 -13 C 9.0625 -13.5 8.320312 -14.269531 7.25 -15.3125 L 4.28125 -18.28125 C 1.988281 -20.519531 0.84375 -23.003906 0.84375 -25.734375 C 0.84375 -28.671875 1.515625 -30.90625 2.859375 -32.4375 C 4.210938 -33.976562 6.1875 -34.75 8.78125 -34.75 C 11.875 -34.75 14.101562 -33.925781 15.46875 -32.28125 C 16.832031 -30.632812 17.515625 -28.0625 17.515625 -24.5625 L 10.5 -24.5625 L 10.453125 -26.9375 C 10.453125 -27.382812 10.328125 -27.742188 10.078125 -28.015625 C 9.828125 -28.285156 9.472656 -28.421875 9.015625 -28.421875 C 8.484375 -28.421875 8.082031 -28.269531 7.8125 -27.96875 C 7.550781 -27.675781 7.421875 -27.273438 7.421875 -26.765625 C 7.421875 -25.648438 8.0625 -24.488281 9.34375 -23.28125 L 13.34375 -19.4375 C 14.28125 -18.53125 15.054688 -17.664062 15.671875 -16.84375 C 16.285156 -16.03125 16.78125 -15.066406 17.15625 -13.953125 C 17.53125 -12.847656 17.71875 -11.535156 17.71875 -10.015625 C 17.71875 -6.617188 17.09375 -4.046875 15.84375 -2.296875 C 14.601562 -0.546875 12.554688 0.328125 9.703125 0.328125 Z M 9.703125 0.328125 "/></g></g></g><g fill="#000000" fill-opacity="1"><g transform="translate(74.977911, 45.700502)"><g><path d="M 1.515625 -34.421875 L 10.625 -34.421875 C 13.375 -34.421875 15.335938 -33.53125 16.515625 -31.75 C 17.691406 -29.976562 18.28125 -27.382812 18.28125 -23.96875 C 18.28125 -20.550781 17.757812 -17.972656 16.71875 -16.234375 C 15.675781 -14.492188 13.804688 -13.625 11.109375 -13.625 L 8.296875 -13.625 L 8.296875 0 L 1.515625 0 Z M 8.703125 -19.84375 C 9.523438 -19.84375 10.128906 -19.992188 10.515625 -20.296875 C 10.910156 -20.609375 11.164062 -21.050781 11.28125 -21.625 C 11.40625 -22.195312 11.46875 -23.019531 11.46875 -24.09375 C 11.46875 -25.53125 11.304688 -26.566406 10.984375 -27.203125 C 10.660156 -27.847656 10.019531 -28.171875 9.0625 -28.171875 L 8.296875 -28.171875 L 8.296875 -19.84375 Z M 8.703125 -19.84375 "/></g></g></g><g fill="#000000" fill-opacity="1"><g transform="translate(94.213278, 45.700502)"><g><path d="M 0.59375 0 L 3.921875 -34.421875 L 15.59375 -34.421875 L 18.875 0 L 12.34375 0 L 11.859375 -5.578125 L 7.6875 -5.578125 L 7.296875 0 Z M 8.21875 -11.0625 L 11.34375 -11.0625 L 9.8125 -28.578125 L 9.5 -28.578125 Z M 8.21875 -11.0625 "/></g></g></g><g fill="#000000" fill-opacity="1"><g transform="translate(113.969589, 45.700502)"><g><path d="M 9.53125 0.328125 C 7.019531 0.328125 5.007812 -0.457031 3.5 -2.03125 C 2 -3.613281 1.25 -5.78125 1.25 -8.53125 L 1.25 -24.40625 C 1.25 -27.820312 1.925781 -30.398438 3.28125 -32.140625 C 4.644531 -33.878906 6.785156 -34.75 9.703125 -34.75 C 12.234375 -34.75 14.273438 -34.050781 15.828125 -32.65625 C 17.378906 -31.269531 18.15625 -29.269531 18.15625 -26.65625 L 18.15625 -20.71875 L 11.296875 -20.71875 L 11.296875 -25.8125 C 11.296875 -26.800781 11.175781 -27.484375 10.9375 -27.859375 C 10.695312 -28.234375 10.285156 -28.421875 9.703125 -28.421875 C 9.085938 -28.421875 8.664062 -28.207031 8.4375 -27.78125 C 8.207031 -27.351562 8.09375 -26.722656 8.09375 -25.890625 L 8.09375 -8.609375 C 8.09375 -7.703125 8.222656 -7.039062 8.484375 -6.625 C 8.753906 -6.21875 9.160156 -6.015625 9.703125 -6.015625 C 10.765625 -6.015625 11.296875 -6.878906 11.296875 -8.609375 L 11.296875 -14.828125 L 18.234375 -14.828125 L 18.234375 -8.34375 C 18.234375 -2.5625 15.332031 0.328125 9.53125 0.328125 Z M 9.53125 0.328125 "/></g></g></g><g fill="#000000" fill-opacity="1"><g transform="translate(133.285101, 45.700502)"><g><path d="M 1.515625 0 L 1.515625 -34.421875 L 15.3125 -34.421875 L 15.3125 -27.78125 L 8.53125 -27.78125 L 8.53125 -21.078125 L 15.03125 -21.078125 L 15.03125 -14.59375 L 8.53125 -14.59375 L 8.53125 -6.6875 L 15.75 -6.6875 L 15.75 0 Z M 1.515625 0 "/></g></g></g></svg>